<?xml version="1.0" standalone="no"?>
<!DOCTYPE svg PUBLIC "-//W3C//DTD SVG 20010904//EN"
 "http://www.w3.org/TR/2001/REC-SVG-20010904/DTD/svg10.dtd">
<svg version="1.0" xmlns="http://www.w3.org/2000/svg"
 width="871.000000pt" height="871.000000pt" viewBox="0 0 871.000000 871.000000"
 preserveAspectRatio="xMidYMid meet">

<g transform="translate(0.000000,871.000000) scale(0.100000,-0.100000)"
fill="#000000" stroke="none">
<path d="M2796 8358 c-3 -29 -19 -822 -36 -1763 -17 -940 -33 -1806 -37 -1922
l-6 -213 633 0 633 0 -6 -2102 c-4 -1156 -5 -2099 -3 -2097 2 2 455 1242 1005
2756 551 1513 1004 2759 1007 2767 6 14 -63 16 -720 16 l-726 0 5 23 c9 40
405 2555 405 2571 0 15 -95 16 -1074 16 l-1075 0 -5 -52z"/>
</g>
</svg>
