<?xml version="1.0" standalone="no"?>
<!DOCTYPE svg PUBLIC "-//W3C//DTD SVG 20010904//EN"
 "http://www.w3.org/TR/2001/REC-SVG-20010904/DTD/svg10.dtd">
<svg version="1.0" xmlns="http://www.w3.org/2000/svg"
 width="685.000000pt" height="685.000000pt" viewBox="0 0 685.000000 685.000000"
 preserveAspectRatio="xMidYMid meet">

<g transform="translate(0.000000,685.000000) scale(0.100000,-0.100000)"
fill="#000000" stroke="none">
<path d="M4591 6468 c-42 -205 -560 -2872 -558 -2874 1 -1 211 -38 467 -83
255 -45 465 -83 466 -84 1 -1 -122 -697 -272 -1547 -150 -850 -272 -1549 -271
-1553 1 -5 500 855 1108 1910 898 1557 1103 1919 1090 1925 -9 4 -250 48 -535
97 -286 50 -520 92 -522 94 -1 1 143 425 321 942 178 517 320 941 316 942 -3
2 -352 63 -776 138 -423 74 -782 138 -797 141 -25 5 -27 3 -37 -48z"/>
<path d="M895 5604 c-374 -216 -690 -399 -702 -406 -22 -13 -12 -32 697 -1313
396 -714 722 -1301 725 -1303 2 -2 187 102 411 231 225 130 411 234 414 232 4
-2 362 -618 795 -1369 434 -751 790 -1364 791 -1363 3 4 -774 4359 -780 4364
-2 3 -212 -115 -466 -261 -253 -147 -465 -267 -471 -269 -5 -1 -170 412 -365
918 -195 506 -358 923 -362 926 -4 3 -313 -171 -687 -387z"/>
</g>
</svg>
